<?xml version="1.0" standalone="no"?><!DOCTYPE svg PUBLIC "-//W3C//DTD SVG 1.1//EN" "http://www.w3.org/Graphics/SVG/1.1/DTD/svg11.dtd"><svg t="1687327583147" class="icon" viewBox="0 0 1024 1024" version="1.1" xmlns="http://www.w3.org/2000/svg" p-id="2647" xmlns:xlink="http://www.w3.org/1999/xlink" width="16" height="16"><path d="M512 384 384 384C345.6 384 320 358.4 320 320l0 0c0-38.4 25.6-64 64-64l128 0c38.4 0 64 25.6 64 64l0 0C576 358.4 550.4 384 512 384z" p-id="2648" fill="#1392f0"></path><path d="M640 576 384 576C345.6 576 320 550.4 320 512l0 0c0-38.4 25.6-64 64-64l256 0c38.4 0 64 25.6 64 64l0 0C704 550.4 678.4 576 640 576z" p-id="2649" fill="#1392f0"></path><path d="M576 768 384 768c-38.4 0-64-25.6-64-64l0 0c0-38.4 25.6-64 64-64l192 0c38.4 0 64 25.6 64 64l0 0C640 742.4 614.4 768 576 768z" p-id="2650" fill="#1392f0"></path><path d="M678.4 64 320 64C211.2 64 128 147.2 128 256l0 512c0 108.8 83.2 192 192 192l384 0c108.8 0 192-83.2 192-192L896 288c0-19.2-6.4-32-19.2-44.8l-153.6-160C710.4 70.4 697.6 64 678.4 64zM768 320l0 448c0 38.4-32 64-64 64L320 832c-38.4 0-64-32-64-64L256 256c0-38.4 32-64 64-64l320 0 0 64c0 38.4 25.6 64 64 64L768 320z" p-id="2651" fill="#1392f0"></path></svg>